<svg width="48" height="48" viewBox="0 0 48 48" fill="none" xmlns="http://www.w3.org/2000/svg">
<path d="M0 17.3714C0 11.2909 0 8.25057 1.18336 5.9281C2.22427 3.8852 3.8852 2.22427 5.9281 1.18336C8.25057 0 11.2909 0 17.3714 0H30.6286C36.7091 0 39.7494 0 42.0719 1.18336C44.1148 2.22427 45.7757 3.8852 46.8166 5.9281C48 8.25057 48 11.2909 48 17.3714V30.6286C48 36.7091 48 39.7494 46.8166 42.0719C45.7757 44.1148 44.1148 45.7757 42.0719 46.8166C39.7494 48 36.7091 48 30.6286 48H17.3714C11.2909 48 8.25057 48 5.9281 46.8166C3.8852 45.7757 2.22427 44.1148 1.18336 42.0719C0 39.7494 0 36.7091 0 30.6286V17.3714Z" fill="#00005B"/>
<path d="M20.2106 30.1095H12.7724L11.259 34.9405C11.217 35.1196 11.052 35.2465 10.8726 35.2377H7.10521C6.89036 35.2377 6.81523 35.1166 6.87981 34.8744L13.3198 15.9303C13.3842 15.7322 13.4486 15.5385 13.513 15.2851C13.5972 14.8444 13.6404 14.3966 13.6418 13.9476C13.6234 13.8149 13.7378 13.6975 13.8672 13.7164H18.9869C19.1369 13.7164 19.2228 13.7714 19.2446 13.8815L26.554 34.9074C26.6184 35.1278 26.554 35.2379 26.3608 35.2377H22.1747C22.0279 35.2544 21.8877 35.1538 21.8528 35.0066L20.2106 30.1095ZM13.9316 26.0362H19.0192C18.1833 23.1799 17.24 20.3611 16.4754 17.4825C15.609 20.4685 14.809 23.2377 13.9316 26.0362Z" fill="#9999FF"/>
<path d="M31.9903 28.2441C32.2863 30.6971 34.3461 31.8666 36.6271 31.8168C37.9132 31.7915 39.2878 31.5918 40.4896 31.1055C40.5967 31.0178 40.6506 31.0725 40.6506 31.2706V34.4081C40.6608 34.5713 40.5926 34.7171 40.4574 34.8043C38.9637 35.4829 37.2489 35.6875 35.6288 35.6616C30.7983 35.6616 27.4809 32.258 27.4823 27.3061C27.4696 22.6134 30.514 18.6544 35.2424 18.6544C39.2505 18.5505 42.0254 21.7596 42.0366 25.7539C42.0366 26.4814 41.996 27.2114 41.9078 27.9336C41.8907 28.0823 41.764 28.1978 41.618 28.1978C38.4169 28.1978 35.2001 28.2441 31.9903 28.2441ZM31.9903 25.2356C33.7742 25.2356 35.5686 25.2986 37.3515 25.219C37.6195 25.1916 37.8185 25.1408 37.8185 24.8621C37.7813 23.3813 36.5316 22.1635 35.0815 22.2201C33.3294 22.1115 32.208 23.5905 31.9903 25.2356Z" fill="#9999FF"/>
</svg>
