<svg width="48" height="48" viewBox="0 0 48 48" fill="none" xmlns="http://www.w3.org/2000/svg">
<path d="M0 17.3714C0 11.2909 0 8.25057 1.18336 5.9281C2.22427 3.8852 3.8852 2.22427 5.9281 1.18336C8.25057 0 11.2909 0 17.3714 0H30.6286C36.7091 0 39.7494 0 42.0719 1.18336C44.1148 2.22427 45.7757 3.8852 46.8166 5.9281C48 8.25057 48 11.2909 48 17.3714V30.6286C48 36.7091 48 39.7494 46.8166 42.0719C45.7757 44.1148 44.1148 45.7757 42.0719 46.8166C39.7494 48 36.7091 48 30.6286 48H17.3714C11.2909 48 8.25057 48 5.9281 46.8166C3.8852 45.7757 2.22427 44.1148 1.18336 42.0719C0 39.7494 0 36.7091 0 30.6286V17.3714Z" fill="#330000"/>
<path d="M23.2604 30.165H15.8222L14.3088 34.9868C14.2668 35.1659 14.1018 35.2928 13.9224 35.284H10.155C9.94017 35.284 9.86504 35.1629 9.92961 34.9207L16.3696 15.8979C16.434 15.6998 16.4984 15.4742 16.5628 15.2209C16.6471 14.7803 16.6902 14.3324 16.6916 13.8834C16.6732 13.7508 16.7898 13.6336 16.917 13.6522H22.0368C22.1868 13.6522 22.2726 13.7073 22.2944 13.8174L29.6039 34.9537C29.6682 35.1741 29.6038 35.2842 29.4106 35.284H25.2246C25.0777 35.3007 24.9375 35.2 24.9026 35.0528L23.2604 30.165ZM16.9814 26.0038H22.069C21.2331 23.1475 20.2898 20.3287 19.5252 17.4502C18.7003 20.3336 17.8003 23.2054 16.9814 26.0038Z" fill="#FF9A00"/>
<path d="M33.9504 17.1528C33.622 17.1664 33.2945 17.1086 32.9893 16.9834C32.6841 16.8582 32.4082 16.6684 32.1794 16.4263C31.9513 16.1737 31.7742 15.8773 31.6581 15.5543C31.542 15.2312 31.4894 14.8878 31.5032 14.5438C31.4915 14.2032 31.5499 13.8639 31.6748 13.5481C31.7996 13.2322 31.988 12.947 32.2277 12.7109C32.465 12.4772 32.7451 12.2942 33.0519 12.1723C33.3586 12.0504 33.6859 11.9922 34.0148 12.0008C34.7876 12.0008 35.3941 12.2375 35.8341 12.7109C36.0562 12.9569 36.2289 13.2454 36.3421 13.5599C36.4554 13.8744 36.5071 14.2088 36.4942 14.5438C36.5076 14.8892 36.4533 15.2338 36.3344 15.5571C36.2154 15.8805 36.0344 16.1761 35.8019 16.4263C35.5589 16.6719 35.269 16.8633 34.9503 16.9884C34.6317 17.1134 34.2912 17.1694 33.9504 17.1528ZM31.7285 34.9536V19.1674C31.7285 18.9692 31.8141 18.8701 31.9862 18.8701H35.9468C36.1184 18.8701 36.2043 18.9692 36.2044 19.1674V34.9536C36.2044 35.174 36.1186 35.2841 35.9468 35.2839H32.0184C31.8252 35.2839 31.7286 35.1738 31.7285 34.9536Z" fill="#FF9A00"/>
</svg>
