<svg width="48" height="48" viewBox="0 0 48 48" fill="none" xmlns="http://www.w3.org/2000/svg">
<mask id="mask0_122_34" style="mask-type:luminance" maskUnits="userSpaceOnUse" x="3" y="1" width="42" height="46">
<path d="M3.62109 1.23071H44.3731V46.7587H3.62109V1.23071Z" fill="white"/>
</mask>
<g mask="url(#mask0_122_34)">
<path d="M44.3667 1.23047H3.62695L7.22158 41.9661L23.9968 46.7585L40.7721 41.9661L44.3667 1.23047Z" fill="#0277BD"/>
</g>
<path d="M23.998 4.82568V43.0452L37.4182 39.2112L40.4138 4.82568H23.998Z" fill="#039BE5"/>
<path d="M34.9019 10.8159H23.998V15.6083H29.8694L29.5099 20.4007H23.998V25.1932H29.2703L28.9108 30.5847L23.998 32.2619V37.294L33.464 34.1789L34.3028 20.4007L34.9019 10.8159Z" fill="white"/>
<path d="M23.9974 10.8159V15.6083H13.3331L12.9736 10.8159H23.9974ZM18.4855 20.4007L18.7251 25.1932H23.9974V20.4007H18.4855ZM18.9648 27.5893H14.1719L14.5314 34.1789L23.9974 37.294V32.2619L19.0846 30.5847L18.9648 27.5893Z" fill="#EEEEEE"/>
</svg>
