<svg width="48" height="48" viewBox="0 0 48 48" fill="none" xmlns="http://www.w3.org/2000/svg">
<rect width="48" height="48" rx="9" fill="white"/>
<path fill-rule="evenodd" clip-rule="evenodd" d="M24 11.5C16.8175 11.5 11 17.2352 11 24.3162C11 29.9873 14.7212 34.7774 19.8888 36.4755C20.5387 36.5877 20.7825 36.2032 20.7825 35.8667C20.7825 35.5624 20.7663 34.5531 20.7663 33.4797C17.5 34.0725 16.655 32.6947 16.395 31.9738C16.2487 31.6054 15.615 30.4679 15.0625 30.1636C14.6075 29.9232 13.9575 29.3305 15.0462 29.3145C16.07 29.2985 16.8012 30.2437 17.045 30.6281C18.215 32.5666 20.0838 32.0219 20.8313 31.6855C20.945 30.8524 21.2863 30.2917 21.66 29.9713C18.7675 29.6509 15.745 28.5455 15.745 23.6433C15.745 22.2496 16.2488 21.0961 17.0775 20.199C16.9475 19.8786 16.4925 18.5649 17.2075 16.8027C17.2075 16.8027 18.2962 16.4663 20.7825 18.1163C21.8225 17.828 22.9275 17.6838 24.0325 17.6838C25.1375 17.6838 26.2425 17.828 27.2825 18.1163C29.7688 16.4502 30.8575 16.8027 30.8575 16.8027C31.5725 18.5649 31.1175 19.8786 30.9875 20.199C31.8162 21.0961 32.32 22.2335 32.32 23.6433C32.32 28.5615 29.2812 29.6509 26.3888 29.9713C26.86 30.3718 27.2663 31.1408 27.2663 32.3423C27.2663 34.0565 27.25 35.4342 27.25 35.8667C27.25 36.2032 27.4937 36.6037 28.1438 36.4755C33.2788 34.7774 37 29.9713 37 24.3162C37 17.2352 31.1825 11.5 24 11.5Z" fill="black"/>
</svg>
