<svg width="160" height="61" viewBox="0 0 160 61" fill="none" xmlns="http://www.w3.org/2000/svg">
<path d="M108.011 0.751953C121.061 0.664359 134.137 3.5031 144.16 9.23926V9.23828C153.422 14.5608 158.341 21.3864 159.135 28.2227C159.927 35.0405 156.642 42.0999 149.001 47.9717L148.99 47.9795L148.98 47.9883C144.637 51.5752 138.866 54.5197 132.135 56.5566C125.406 58.5928 117.934 59.6558 110.347 59.6514H37.6797C25.7186 59.6514 15.1834 56.3205 8.53125 51.2002L8.51953 51.1904L8.04785 50.8359C3.25475 47.1466 0.752393 42.7117 0.75 38.2432C0.748397 35.5314 1.66696 32.8214 3.49316 30.2676C5.32262 27.7093 8.02526 25.362 11.4678 23.3809C14.9089 21.4006 19.0042 19.8349 23.5176 18.7842C28.0301 17.7337 32.8598 17.2219 37.7217 17.2803L38.0928 17.2842L38.3213 16.9922C39.5707 15.3963 41.3909 13.9407 43.6924 12.7344C45.9921 11.5289 48.7061 10.6078 51.667 10.0361C54.6272 9.46469 57.761 9.25759 60.8691 9.42871C63.9774 9.59985 66.9856 10.1448 69.7041 11.0264L70.0488 11.1387L70.3506 10.9385C70.9634 10.5323 71.5967 10.1302 72.252 9.73438L72.2529 9.73535C82.0165 3.85344 94.9603 0.839606 108.011 0.751953Z" fill="white" stroke="#B4ACBC" stroke-width="1.5"/>
</svg>
