<svg width="160" height="61" viewBox="0 0 160 61" fill="none" xmlns="http://www.w3.org/2000/svg">
<path d="M108.013 1.00195C121.03 0.91458 134.059 3.74672 144.036 9.45605V9.45508C153.255 14.7529 158.105 21.5192 158.887 28.251C159.666 34.9585 156.44 41.9393 148.849 47.7734L148.834 47.7842L148.821 47.7949C144.509 51.3563 138.769 54.2879 132.062 56.3174C125.359 58.3459 117.912 59.4058 110.348 59.4014H37.6797C25.7594 59.4014 15.2827 56.0805 8.68457 51.002L8.67578 50.9951L8.66699 50.9893L8.2002 50.6377C3.44847 46.9803 1.00234 42.6115 1 38.2432C0.998399 35.5903 1.89703 32.9305 3.69727 30.4131C5.50156 27.89 8.17408 25.5651 11.5928 23.5977C15.0095 21.6314 19.0812 20.0743 23.5742 19.0283C28.0663 17.9826 32.876 17.4721 37.7188 17.5303L38.2139 17.5361L38.5186 17.1465C39.7415 15.5845 41.5311 14.1498 43.8086 12.9561C46.0839 11.7634 48.7742 10.8489 51.7148 10.2812C54.6543 9.71381 57.7671 9.50771 60.8555 9.67773C63.9441 9.84779 66.9306 10.3902 69.627 11.2646L70.0859 11.4131L70.4883 11.1465C71.0983 10.7422 71.7293 10.3424 72.3818 9.94824C82.0978 4.09516 94.9952 1.08934 108.013 1.00195Z" fill="#B4ACBC" stroke="#B4ACBC" stroke-width="2"/>
</svg>
