<svg width="48" height="48" viewBox="0 0 48 48" fill="none" xmlns="http://www.w3.org/2000/svg">
<mask id="mask0_122_24" style="mask-type:luminance" maskUnits="userSpaceOnUse" x="3" y="1" width="42" height="46">
<path d="M3.79785 1.05542H44.2138V46.9434H3.79785V1.05542Z" fill="white"/>
</mask>
<g mask="url(#mask0_122_24)">
<path d="M7.46651 42.3415L3.78613 1.07666H44.225L40.5418 42.3358L23.9798 46.9234L7.46651 42.3415Z" fill="#E44D26"/>
</g>
<path d="M37.3875 39.7084L40.5362 4.45117H24.0059V43.4178L37.3875 39.7084Z" fill="#F16529"/>
<path d="M23.9885 9.51172H11.3105L12.6764 24.8163H24.0058V19.7558H17.307L16.844 14.5736H24.0058V9.51172H23.9885ZM24.0058 32.8827L23.9843 32.8885L18.346 31.367L17.9878 27.3308H12.9028L13.6123 35.277L23.9828 38.1425L24.0058 38.1352V32.8827Z" fill="#EBEBEB"/>
<path d="M23.9882 24.8163H30.2226L29.6494 31.3783L24.0026 32.9013V38.1667L34.3817 35.2912L35.772 19.753H24.0055L23.9882 24.8163ZM36.5487 10.87L36.6691 9.51172H23.9854V14.5721H36.2134L36.3137 13.4346L36.5487 10.87Z" fill="white"/>
</svg>
