<svg width="48" height="48" viewBox="0 0 48 48" fill="none" xmlns="http://www.w3.org/2000/svg">
<mask id="mask0_122_44" style="mask-type:luminance" maskUnits="userSpaceOnUse" x="1" y="1" width="46" height="46">
<path d="M1.46973 10.47C1.46973 5.4994 5.49916 1.46997 10.4697 1.46997H37.5417C42.5123 1.46997 46.5417 5.49941 46.5417 10.47V37.542C46.5417 42.5125 42.5123 46.542 37.5417 46.542H10.4697C5.49916 46.542 1.46973 42.5125 1.46973 37.542V10.47Z" fill="white"/>
</mask>
<g mask="url(#mask0_122_44)">
<path d="M1.46973 10.47C1.46973 5.4994 5.49916 1.46997 10.4697 1.46997H37.5417C42.5123 1.46997 46.5417 5.49941 46.5417 10.47V37.542C46.5417 42.5125 42.5123 46.542 37.5417 46.542H10.4697C5.49916 46.542 1.46973 42.5125 1.46973 37.542V10.47Z" fill="#FFD600"/>
</g>
<path d="M30.939 35.2073C31.8054 36.6146 32.7469 37.963 34.7413 37.963C36.4165 37.963 37.2954 37.1305 37.2954 35.9786C37.2954 34.6001 36.3864 34.1106 34.5435 33.3081L33.5332 32.8773C30.6172 31.6405 28.6779 30.0905 28.6779 26.8165C28.6779 23.7991 30.9878 21.503 34.5973 21.503C37.1677 21.503 39.0144 22.3931 40.3465 24.7243L37.199 26.7363C36.5067 25.4993 35.7579 25.0123 34.5973 25.0123C33.4129 25.0123 32.663 25.7597 32.663 26.7363C32.663 27.9432 33.4142 28.4316 35.1482 29.179L36.1585 29.6097C39.5953 31.0732 41.5334 32.5681 41.5334 35.9285C41.5334 39.5493 38.6738 41.5337 34.8352 41.5337C31.0804 41.5337 28.9483 39.6495 27.7614 37.317L30.939 35.2073ZM16.4333 35.31C17.0668 36.4443 18.0297 37.317 19.4143 37.317C20.7389 37.317 21.5014 36.7936 21.5014 34.7591V21.5017H25.6743V35.4002C25.6743 39.6156 23.2292 41.5337 19.6584 41.5337C16.432 41.5337 14.1033 39.3477 13.1543 37.317L16.4333 35.31Z" fill="#000001"/>
</svg>
