<svg width="49" height="49" viewBox="0 0 49 49" fill="none" xmlns="http://www.w3.org/2000/svg">
<path d="M0 17.7333C0 11.5261 0 8.42246 1.20801 6.0516C2.27061 3.96614 3.96614 2.27061 6.0516 1.20801C8.42246 0 11.5261 0 17.7333 0H31.2667C37.4739 0 40.5775 0 42.9484 1.20801C45.0339 2.27061 46.7294 3.96614 47.792 6.0516C49 8.42246 49 11.5261 49 17.7333V31.2667C49 37.4739 49 40.5775 47.792 42.9484C46.7294 45.0339 45.0339 46.7294 42.9484 47.792C40.5775 49 37.4739 49 31.2667 49H17.7333C11.5261 49 8.42246 49 6.0516 47.792C3.96614 46.7294 2.27061 45.0339 1.20801 42.9484C0 40.5775 0 37.4739 0 31.2667V17.7333Z" fill="#001E36"/>
<path d="M25.7335 36.0851H12.7824C12.5632 36.0851 12.4537 35.9615 12.4538 35.7143V14.3061C12.4295 14.1319 12.5798 13.9778 12.7496 14.0027H16.7599C16.892 13.9836 17.0083 14.1054 16.99 14.2387V31.8372H26.4239C26.6211 31.8372 26.6978 31.9384 26.654 32.1407L26.0623 35.7817C26.0572 35.9651 25.9068 36.0833 25.7335 36.0851Z" fill="#31A8FF"/>
<path d="M29.0238 19.3059H32.6068C32.8044 19.3076 32.9818 19.4476 33.0341 19.643C33.2967 20.241 33.329 20.9621 33.33 21.6076C33.9444 20.8739 34.6854 20.2624 35.5158 19.804C36.4065 19.2871 37.4162 19.0251 38.4394 19.0454C38.6092 19.0205 38.7596 19.1747 38.7353 19.3489V23.4282C38.7353 23.5857 38.6254 23.6642 38.4066 23.6642C36.8901 23.5569 34.529 23.9244 33.427 25.1476V35.7546C33.427 35.9569 33.3393 36.058 33.164 36.058H29.3197C29.1308 36.0858 28.9643 35.9115 28.9909 35.7208V24.2036C28.9909 22.6603 29.0235 21.0706 28.7937 19.5419C28.7583 19.4012 28.8897 19.2704 29.0238 19.3059Z" fill="#31A8FF"/>
</svg>
