<svg width="48" height="48" viewBox="0 0 48 48" fill="none" xmlns="http://www.w3.org/2000/svg">
<path d="M0 17.3714C0 11.2909 0 8.25057 1.18336 5.9281C2.22427 3.8852 3.8852 2.22427 5.9281 1.18336C8.25057 0 11.2909 0 17.3714 0H30.6286C36.7091 0 39.7494 0 42.0719 1.18336C44.1148 2.22427 45.7757 3.8852 46.8166 5.9281C48 8.25057 48 11.2909 48 17.3714V30.6286C48 36.7091 48 39.7494 46.8166 42.0719C45.7757 44.1148 44.1148 45.7757 42.0719 46.8166C39.7494 48 36.7091 48 30.6286 48H17.3714C11.2909 48 8.25057 48 5.9281 46.8166C3.8852 45.7757 2.22427 44.1148 1.18336 42.0719C0 39.7494 0 36.7091 0 30.6286V17.3714Z" fill="#001E36"/>
<path d="M10.2861 35.1708V14.0631C10.2861 13.9195 10.3461 13.8374 10.4861 13.8374C12.5529 13.8374 14.6188 13.7144 16.6861 13.7144C20.0407 13.7144 23.673 14.8614 24.9461 18.3708C25.2461 19.2323 25.4061 20.1144 25.4061 21.0374C25.4061 22.8015 25.0061 24.2579 24.2061 25.4067C21.9714 28.6155 18.0981 28.5656 14.6261 28.5656V35.1503C14.6533 35.3452 14.4872 35.4374 14.3261 35.4374H10.5261C10.3661 35.4374 10.2861 35.3554 10.2861 35.1708ZM14.6461 17.7964V24.6887C16.0228 24.7896 17.4634 24.8005 18.7861 24.3605C20.2464 23.9393 21.0461 22.6752 21.0461 21.1605C21.0867 19.8698 20.3834 18.6314 19.1861 18.1656C17.8793 17.6223 16.0568 17.5897 14.6461 17.7964Z" fill="#31A8FF"/>
<path d="M37.8804 23.327C37.2753 23.0081 36.6307 22.7748 35.9645 22.6334C35.1083 22.432 31.7315 21.7264 31.7302 23.4921C31.7602 24.4779 33.3249 24.9608 34.0163 25.2425C36.4435 26.0758 39.1902 27.5653 39.1362 30.5596C39.2104 34.2872 35.5988 35.7773 32.503 35.7777C30.8913 35.7944 29.2123 35.5447 27.7373 34.8529C27.5966 34.7784 27.5059 34.619 27.5119 34.4566V30.8898C27.4961 30.7468 27.6496 30.6219 27.7696 30.7247C29.2147 31.5987 30.9277 32.0231 32.5996 32.0457C33.3376 32.0457 34.8003 31.9742 34.7892 30.8898C34.7892 29.8492 33.0394 29.3708 32.3419 29.1064C31.3309 28.7455 30.3722 28.2456 29.4922 27.6203C28.2625 26.7431 27.491 25.3367 27.512 23.7893C27.5048 20.2795 30.8292 18.7041 33.8232 18.7034C35.2228 18.6919 36.7258 18.7955 38.0287 19.3639C38.2161 19.4191 38.2549 19.6164 38.2541 19.7932V23.1288C38.266 23.3359 38.0361 23.4064 37.8804 23.327Z" fill="#31A8FF"/>
</svg>
