<svg width="48" height="48" viewBox="0 0 48 48" fill="none" xmlns="http://www.w3.org/2000/svg">
<path d="M0 17.3714C0 11.2909 0 8.25057 1.18336 5.9281C2.22427 3.8852 3.8852 2.22427 5.9281 1.18336C8.25057 0 11.2909 0 17.3714 0H30.6286C36.7091 0 39.7494 0 42.0719 1.18336C44.1148 2.22427 45.7757 3.8852 46.8166 5.9281C48 8.25057 48 11.2909 48 17.3714V30.6286C48 36.7091 48 39.7494 46.8166 42.0719C45.7757 44.1148 44.1148 45.7757 42.0719 46.8166C39.7494 48 36.7091 48 30.6286 48H17.3714C11.2909 48 8.25057 48 5.9281 46.8166C3.8852 45.7757 2.22427 44.1148 1.18336 42.0719C0 39.7494 0 36.7091 0 30.6286V17.3714Z" fill="#00005B"/>
<path d="M10.2861 33.9354V12.3565C10.2861 12.2097 10.3463 12.1258 10.4867 12.1258C12.5597 12.1258 14.6317 12 16.7052 12C20.0698 12 23.7129 13.1726 24.9899 16.7604C25.2908 17.6411 25.4513 18.5429 25.4513 19.4866C25.4513 21.2901 25.0501 22.779 24.2477 23.9534C22.0063 27.2338 18.1214 27.1829 14.6391 27.1829V33.9145C14.6663 34.1138 14.4997 34.2081 14.3382 34.2081H10.5268C10.3664 34.2081 10.2861 34.1242 10.2861 33.9354ZM14.6591 16.1732V23.2194C16.0399 23.3225 17.4848 23.3337 18.8115 22.8838C20.2761 22.4532 21.0782 21.1609 21.0782 19.6124C21.119 18.2929 20.4136 17.0268 19.2127 16.5507C17.902 15.9952 16.074 15.9619 14.6591 16.1732Z" fill="#9999FF"/>
<path d="M28.1705 17.5062H31.6908C31.8849 17.5079 32.0592 17.6481 32.1106 17.8438C32.3686 18.4426 32.4004 19.1648 32.4013 19.8113C33.005 19.0765 33.733 18.4641 34.5489 18.005C35.424 17.4874 36.4161 17.225 37.4215 17.2454C37.5883 17.2204 37.736 17.3748 37.7122 17.5492V21.6345C37.7122 21.7923 37.6041 21.8709 37.3892 21.8709C35.8992 21.7634 33.5793 22.1314 32.4966 23.3565V33.9789C32.4966 34.1815 32.4105 34.2828 32.2383 34.2828H28.4612C28.2756 34.3106 28.112 34.136 28.1381 33.9451V22.4111C28.1381 20.8655 28.1702 19.2735 27.9444 17.7426C27.9096 17.6017 28.0387 17.4707 28.1705 17.5062Z" fill="#9999FF"/>
</svg>
