<svg width="33" height="33" viewBox="0 0 33 33" fill="none" xmlns="http://www.w3.org/2000/svg">
<path d="M8.72509e-06 12.642V1.64968C8.72509e-06 1.18281 0.157897 0.790814 0.473675 0.473675C0.789453 0.156536 1.18145 -0.00135239 1.64968 8.72509e-06H12.642C13.1089 8.72509e-06 13.5009 0.157897 13.818 0.473675C14.1351 0.789453 14.293 1.18145 14.2917 1.64968V12.642C14.2917 13.1102 14.1338 13.5022 13.818 13.818C13.5022 14.1338 13.1102 14.2917 12.642 14.2917H1.64968C1.18281 14.2917 0.790814 14.1338 0.473675 13.818C0.156536 13.5022 -0.00135239 13.1102 8.72509e-06 12.642ZM2.04168 12.25H12.25V2.04168H2.04168V12.25ZM8.72509e-06 31.017V20.0247C8.72509e-06 19.5565 0.157897 19.1645 0.473675 18.8487C0.789453 18.5329 1.18145 18.375 1.64968 18.375H12.642C13.1089 18.375 13.5009 18.5329 13.818 18.8487C14.1351 19.1645 14.293 19.5565 14.2917 20.0247V31.017C14.2917 31.4839 14.1338 31.8759 13.818 32.193C13.5022 32.5101 13.1102 32.668 12.642 32.6667H1.64968C1.18281 32.6667 0.790814 32.5088 0.473675 32.193C0.156536 31.8772 -0.00135239 31.4852 8.72509e-06 31.017ZM2.04168 30.625H12.25V20.4167H2.04168V30.625ZM18.375 12.642V1.64968C18.375 1.18281 18.5329 0.790814 18.8487 0.473675C19.1645 0.156536 19.5565 -0.00135239 20.0247 8.72509e-06H31.017C31.4852 8.72509e-06 31.8772 0.157897 32.193 0.473675C32.5088 0.789453 32.6667 1.18145 32.6667 1.64968V12.642C32.6667 13.1102 32.5088 13.5022 32.193 13.818C31.8772 14.1338 31.4852 14.2917 31.017 14.2917H20.0247C19.5565 14.2917 19.1645 14.1338 18.8487 13.818C18.5329 13.5022 18.375 13.1102 18.375 12.642ZM20.4167 12.25H30.625V2.04168H20.4167V12.25ZM29.0938 32.6667V29.0938H32.6667V32.6667H29.0938ZM18.375 21.9479V18.375H21.9479V21.9479H18.375ZM21.9479 25.5208V21.9479H25.5208V25.5208H21.9479ZM18.375 29.0938V25.5208H21.9479V29.0938H18.375ZM21.9479 32.6667V29.0938H25.5208V32.6667H21.9479ZM25.5208 29.0938V25.5208H29.0938V29.0938H25.5208ZM25.5208 21.9479V18.375H29.0938V21.9479H25.5208ZM29.0938 25.5208V21.9479H32.6667V25.5208H29.0938Z" fill="#333333"/>
</svg>
