<svg width="19" height="20" viewBox="0 0 19 20" fill="none" xmlns="http://www.w3.org/2000/svg">
<path d="M8.9375 14.585C9.09993 14.8875 9.30132 15.1741 9.54297 15.4424C9.84478 15.7774 10.1772 16.05 10.5381 16.2598C10.1771 16.4696 9.84486 16.7429 9.54297 17.0781C9.30162 17.3461 9.09982 17.6314 8.9375 17.9336C8.77526 17.6316 8.57419 17.346 8.33301 17.0781H8.33203C8.03947 16.7484 7.7003 16.4738 7.3291 16.2617C7.69345 16.0518 8.02973 15.7791 8.33301 15.4424C8.57461 15.1741 8.77508 14.8875 8.9375 14.585ZM2.29395 11.6836C2.38101 11.8163 2.47734 11.9457 2.58789 12.0684C2.74529 12.243 2.91683 12.392 3.09766 12.5195C2.99282 12.5935 2.89002 12.6729 2.79297 12.7627L2.58789 12.9707C2.4794 13.0886 2.38272 13.2165 2.29492 13.3506C2.20723 13.2194 2.10954 13.092 1.99805 12.9707H1.99902C1.84134 12.7958 1.66947 12.6472 1.48828 12.5195C1.66943 12.3919 1.84137 12.2432 1.99902 12.0684C2.10942 11.9459 2.20608 11.8165 2.29395 11.6836ZM15.6416 9.62109C15.8029 9.91919 16.0028 10.2011 16.2412 10.4658C16.5431 10.8009 16.8769 11.0736 17.2393 11.2832C16.8768 11.4928 16.5432 11.7663 16.2412 12.1016C16.0007 12.3686 15.7997 12.6531 15.6377 12.9541C15.4776 12.654 15.2792 12.3708 15.043 12.1045V12.1035L15.0381 12.0986L14.8984 11.9521C14.6358 11.6884 14.3516 11.468 14.0469 11.292C14.4071 11.0823 14.7396 10.8102 15.041 10.4756C15.2821 10.2079 15.4811 9.92252 15.6416 9.62109ZM6.76758 2.36719C6.99832 2.86841 7.30769 3.33685 7.69824 3.77051C8.16961 4.29386 8.69545 4.69564 9.27344 4.97852C9.18173 5.02395 9.09086 5.0723 9.00098 5.12402L8.70898 5.30469C7.95569 5.80375 7.35942 6.47539 6.91895 7.29688L6.91602 7.30078C6.86384 7.40053 6.81443 7.50105 6.76855 7.60254C6.57288 7.17511 6.32086 6.77123 6.00977 6.39355L5.83691 6.19238C5.36925 5.66793 4.84705 5.26232 4.27344 4.97656C4.84688 4.69214 5.3694 4.28958 5.83691 3.77051C6.22743 3.33686 6.53686 2.86839 6.76758 2.36719Z" fill="#FCD53F" stroke="#FFC107"/>
</svg>
