<svg width="160" height="61" viewBox="0 0 160 61" fill="none" xmlns="http://www.w3.org/2000/svg">
<path d="M71.8657 9.09281C91.6788 -2.84336 124.204 -3.0451 144.533 8.58846C163.315 19.3815 165.033 36.5964 149.458 48.5662C145.022 52.2295 139.156 55.2157 132.352 57.2748C125.547 59.3339 118.002 60.406 110.347 60.4015H37.6794C25.5968 60.4015 14.8885 57.0392 8.07415 51.794C2.84909 47.9439 0.0026391 43.167 2.44775e-06 38.244C-0.00178783 35.3549 0.978497 32.4947 2.88341 29.8309C4.78833 27.1672 7.57957 24.7534 11.0936 22.7312C14.6075 20.7089 18.7736 19.1188 23.3476 18.054C27.9216 16.9892 32.8116 16.4712 37.7309 16.5302C39.0598 14.8328 40.9708 13.3146 43.3443 12.0705C45.7178 10.8264 48.5028 9.88313 51.5253 9.29966C54.5478 8.71619 57.7428 8.50507 60.9106 8.67948C64.0784 8.8539 67.1508 9.4101 69.9359 10.3133C70.5581 9.90088 71.2014 9.49404 71.8657 9.09281Z" fill="#EBE7EF"/>
</svg>
