<svg width="48" height="48" viewBox="0 0 48 48" fill="none" xmlns="http://www.w3.org/2000/svg">
<g clip-path="url(#clip0_122_98)">
<g filter="url(#filter0_d_122_98)">
<rect x="-184" y="-184" width="416" height="416" rx="88" fill="#007ACC"/>
<rect x="-184" y="-184" width="416" height="416" rx="88" fill="url(#paint0_linear_122_98)" fill-opacity="0.6" style="mix-blend-mode:soft-light"/>
</g>
<g filter="url(#filter1_d_122_98)">
<path fill-rule="evenodd" clip-rule="evenodd" d="M30.2735 38.8115C30.746 38.9956 31.2848 38.9838 31.7618 38.7544L37.9383 35.7824C38.5873 35.4701 39 34.8131 39 34.0925V13.9404C39 13.2198 38.5873 12.5629 37.9383 12.2506L31.7618 9.27851C31.1359 8.97735 30.4034 9.05112 29.8541 9.45047C29.7756 9.50752 29.7008 9.57122 29.6307 9.64141L17.8065 20.4288L12.6562 16.5193C12.1767 16.1553 11.5061 16.1852 11.0608 16.5902L9.40891 18.0929C8.86423 18.5883 8.86361 19.4452 9.40756 19.9415L13.8741 24.0164L9.40756 28.0913C8.86361 28.5876 8.86423 29.4445 9.40891 29.94L11.0608 31.4426C11.5061 31.8477 12.1767 31.8774 12.6562 31.5136L17.8065 27.604L29.6307 38.3914C29.8178 38.5786 30.0374 38.7196 30.2735 38.8115ZM31.5046 17.2061L22.5327 24.0164L31.5046 30.8267V17.2061Z" fill="black"/>
</g>
<mask id="mask0_122_98" style="mask-type:alpha" maskUnits="userSpaceOnUse" x="9" y="9" width="30" height="30">
<path fill-rule="evenodd" clip-rule="evenodd" d="M30.2735 38.8115C30.746 38.9956 31.2848 38.9838 31.7618 38.7544L37.9383 35.7824C38.5873 35.4701 39 34.8131 39 34.0925V13.9404C39 13.2198 38.5873 12.5629 37.9383 12.2506L31.7618 9.27851C31.1359 8.97735 30.4034 9.05112 29.8541 9.45047C29.7756 9.50752 29.7008 9.57122 29.6307 9.64141L17.8065 20.4288L12.6562 16.5193C12.1767 16.1553 11.5061 16.1852 11.0608 16.5902L9.40891 18.0929C8.86423 18.5883 8.86361 19.4452 9.40756 19.9415L13.8741 24.0164L9.40756 28.0913C8.86361 28.5876 8.86423 29.4445 9.40891 29.94L11.0608 31.4426C11.5061 31.8477 12.1767 31.8774 12.6562 31.5136L17.8065 27.604L29.6307 38.3914C29.8178 38.5786 30.0374 38.7196 30.2735 38.8115ZM31.5046 17.2061L22.5327 24.0164L31.5046 30.8267V17.2061Z" fill="white"/>
</mask>
<g mask="url(#mask0_122_98)">
<path d="M37.938 12.2552L31.7567 9.27905C31.0413 8.93455 30.1862 9.07987 29.6246 9.64138L9.38925 28.0913C8.84497 28.5876 8.8456 29.4445 9.3906 29.94L11.0435 31.4426C11.4891 31.8477 12.1601 31.8774 12.6398 31.5136L37.0079 13.0274C37.8254 12.4072 38.9996 12.9902 38.9996 14.0164V13.9446C38.9996 13.2243 38.587 12.5677 37.938 12.2552Z" fill="#BDBDBD"/>
<g filter="url(#filter2_d_122_98)">
<path d="M37.938 35.7776L31.7567 38.7538C31.0413 39.0982 30.1862 38.9529 29.6246 38.3915L9.38925 19.9415C8.84497 19.4452 8.8456 18.5883 9.3906 18.0929L11.0435 16.5902C11.4891 16.1852 12.1601 16.1553 12.6398 16.5193L37.0079 35.0054C37.8254 35.6256 38.9996 35.0426 38.9996 34.0164V34.0882C38.9996 34.8084 38.587 35.465 37.938 35.7776Z" fill="#E0E0E0"/>
</g>
<g filter="url(#filter3_d_122_98)">
<path d="M31.7573 38.7543C31.0417 39.0985 30.1866 38.953 29.625 38.3915C30.3169 39.0833 31.5 38.5933 31.5 37.6147V10.4181C31.5 9.43954 30.3169 8.94949 29.625 9.64141C30.1866 9.07985 31.0417 8.93432 31.7573 9.27851L37.9376 12.2506C38.587 12.5629 39 13.2198 39 13.9404V34.0926C39 34.8131 38.587 35.47 37.9376 35.7823L31.7573 38.7543Z" fill="#FAFAFA"/>
</g>
<g style="mix-blend-mode:overlay" opacity="0.25">
<path style="mix-blend-mode:overlay" opacity="0.25" fill-rule="evenodd" clip-rule="evenodd" d="M30.255 38.8118C30.7275 38.9958 31.2663 38.9841 31.7432 38.7546L37.9196 35.7825C38.5687 35.4702 38.9815 34.8134 38.9815 34.0928V13.9406C38.9815 13.22 38.5687 12.5632 37.9198 12.2509L31.7432 9.27876C31.1174 8.97759 30.3848 9.05136 29.8355 9.45072C29.7571 9.50776 29.6823 9.57146 29.6121 9.64166L17.788 20.4291L12.6376 16.5195C12.1582 16.1556 11.4875 16.1854 11.0422 16.5905L9.39035 18.0931C8.84568 18.5886 8.84506 19.4455 9.38901 19.9417L13.8556 24.0167L9.38901 28.0916C8.84506 28.5879 8.84568 29.4448 9.39035 29.9402L11.0422 31.4428C11.4875 31.8479 12.1582 31.8777 12.6376 31.5138L17.788 27.6042L29.6121 38.3917C29.7991 38.5788 30.0189 38.7198 30.255 38.8118ZM31.486 17.2063L22.5142 24.0167L31.486 30.827V17.2063Z" fill="url(#paint1_linear_122_98)"/>
</g>
</g>
</g>
<defs>
<filter id="filter0_d_122_98" x="-200" y="-196" width="448" height="448" filterUnits="userSpaceOnUse" color-interpolation-filters="sRGB">
<feFlood flood-opacity="0" result="BackgroundImageFix"/>
<feColorMatrix in="SourceAlpha" type="matrix" values="0 0 0 0 0 0 0 0 0 0 0 0 0 0 0 0 0 0 127 0" result="hardAlpha"/>
<feOffset dy="4"/>
<feGaussianBlur stdDeviation="8"/>
<feColorMatrix type="matrix" values="0 0 0 0 0 0 0 0 0 0 0 0 0 0 0 0 0 0 0.33 0"/>
<feBlend mode="normal" in2="BackgroundImageFix" result="effect1_dropShadow_122_98"/>
<feBlend mode="normal" in="SourceGraphic" in2="effect1_dropShadow_122_98" result="shape"/>
</filter>
<filter id="filter1_d_122_98" x="-7" y="-2.90625" width="62" height="61.8455" filterUnits="userSpaceOnUse" color-interpolation-filters="sRGB">
<feFlood flood-opacity="0" result="BackgroundImageFix"/>
<feColorMatrix in="SourceAlpha" type="matrix" values="0 0 0 0 0 0 0 0 0 0 0 0 0 0 0 0 0 0 127 0" result="hardAlpha"/>
<feOffset dy="4"/>
<feGaussianBlur stdDeviation="8"/>
<feColorMatrix type="matrix" values="0 0 0 0 0 0 0 0 0 0 0 0 0 0 0 0 0 0 0.8 0"/>
<feBlend mode="soft-light" in2="BackgroundImageFix" result="effect1_dropShadow_122_98"/>
<feBlend mode="normal" in="SourceGraphic" in2="effect1_dropShadow_122_98" result="shape"/>
</filter>
<filter id="filter2_d_122_98" x="-12.352" y="-5.06826" width="72.6854" height="65.3404" filterUnits="userSpaceOnUse" color-interpolation-filters="sRGB">
<feFlood flood-opacity="0" result="BackgroundImageFix"/>
<feColorMatrix in="SourceAlpha" type="matrix" values="0 0 0 0 0 0 0 0 0 0 0 0 0 0 0 0 0 0 127 0" result="hardAlpha"/>
<feOffset/>
<feGaussianBlur stdDeviation="10.6667"/>
<feColorMatrix type="matrix" values="0 0 0 0 0 0 0 0 0 0 0 0 0 0 0 0 0 0 0.25 0"/>
<feBlend mode="overlay" in2="BackgroundImageFix" result="effect1_dropShadow_122_98"/>
<feBlend mode="normal" in="SourceGraphic" in2="effect1_dropShadow_122_98" result="shape"/>
</filter>
<filter id="filter3_d_122_98" x="8.2916" y="-12.2397" width="52.0418" height="72.512" filterUnits="userSpaceOnUse" color-interpolation-filters="sRGB">
<feFlood flood-opacity="0" result="BackgroundImageFix"/>
<feColorMatrix in="SourceAlpha" type="matrix" values="0 0 0 0 0 0 0 0 0 0 0 0 0 0 0 0 0 0 127 0" result="hardAlpha"/>
<feOffset/>
<feGaussianBlur stdDeviation="10.6667"/>
<feColorMatrix type="matrix" values="0 0 0 0 0 0 0 0 0 0 0 0 0 0 0 0 0 0 0.25 0"/>
<feBlend mode="overlay" in2="BackgroundImageFix" result="effect1_dropShadow_122_98"/>
<feBlend mode="normal" in="SourceGraphic" in2="effect1_dropShadow_122_98" result="shape"/>
</filter>
<linearGradient id="paint0_linear_122_98" x1="24" y1="-184" x2="24" y2="232" gradientUnits="userSpaceOnUse">
<stop stop-color="white"/>
<stop offset="1"/>
</linearGradient>
<linearGradient id="paint1_linear_122_98" x1="23.9815" y1="9.09399" x2="23.9815" y2="38.9393" gradientUnits="userSpaceOnUse">
<stop stop-color="white"/>
<stop offset="1" stop-color="white" stop-opacity="0"/>
</linearGradient>
<clipPath id="clip0_122_98">
<rect width="48" height="48" rx="9" fill="white"/>
</clipPath>
</defs>
</svg>
